<svg class="tally tally-tags" xmlns="http://www.w3.org/2000/svg" width="24" height="24" viewBox="0 0 24 24" fill="none" stroke="currentColor" stroke-width="2" stroke-linecap="round" stroke-linejoin="round">
  <path d="M9.9 3H4.6A1.6 1.6 0 0 0 3 4.6v5.3a1.6 1.6 0 0 0 .47 1.13l6.5 6.5a2 2 0 0 0 2.83 0l4.63-4.63a2 2 0 0 0 0-2.83l-6.5-6.5A1.6 1.6 0 0 0 9.9 3z"></path>
  <path d="M14.2 4.6h.6a1.6 1.6 0 0 1 1.13.47l6.5 6.5"></path>
  <circle cx="7" cy="7" r=".9" fill="currentColor" stroke="none"></circle>
</svg>